<svg viewBox="0 0 400 300" xmlns="http://www.w3.org/2000/svg">
  <defs>
    <linearGradient id="grad5" x1="0%" y1="0%" x2="100%" y2="100%">
      <stop offset="0%" style="stop-color:#3b82f6;stop-opacity:1" />
      <stop offset="100%" style="stop-color:#06b6d4;stop-opacity:1" />
    </linearGradient>
  </defs>
  <!-- Server stack 1 -->
  <rect x="50" y="60" width="100" height="60" rx="5" fill="none" stroke="url(#grad5)" stroke-width="2"/>
  <line x1="55" y1="80" x2="145" y2="80" stroke="url(#grad5)" stroke-width="1"/>
  <circle cx="65" cy="95" r="4" fill="url(#grad5)"/>
  <circle cx="135" cy="95" r="4" fill="url(#grad5)"/>
  <!-- Server stack 2 -->
  <rect x="50" y="140" width="100" height="60" rx="5" fill="none" stroke="url(#grad5)" stroke-width="2"/>
  <line x1="55" y1="160" x2="145" y2="160" stroke="url(#grad5)" stroke-width="1"/>
  <circle cx="65" cy="175" r="4" fill="url(#grad5)"/>
  <circle cx="135" cy="175" r="4" fill="url(#grad5)"/>
  <!-- Server stack 3 -->
  <rect x="50" y="220" width="100" height="60" rx="5" fill="none" stroke="url(#grad5)" stroke-width="2"/>
  <!-- Connection lines -->
  <line x1="160" y1="90" x2="220" y2="90" stroke="url(#grad5)" stroke-width="2"/>
  <line x1="160" y1="170" x2="220" y2="170" stroke="url(#grad5)" stroke-width="2"/>
  <!-- Cloud/Central -->
  <path d="M 240 80 Q 260 60 290 80 Q 310 60 330 80 Q 310 100 290 100 Q 260 100 240 80" fill="none" stroke="url(#grad5)" stroke-width="2"/>
  <!-- Download/Upload arrows -->
  <line x1="280" y1="120" x2="280" y2="160" stroke="url(#grad5)" stroke-width="2"/>
  <polygon points="280,120 275,130 285,130" fill="url(#grad5)"/>
</svg>